<?xml version="1.0" encoding="iso-8859-1"?>
<!-- Generator: Adobe Illustrator 19.0.0, SVG Export Plug-In . SVG Version: 6.00 Build 0)  -->
<svg version="1.1" id="Capa_1" xmlns="http://www.w3.org/2000/svg" xmlns:xlink="http://www.w3.org/1999/xlink" x="0px" y="0px"
	 viewBox="0 0 512 512" style="enable-background:new 0 0 512 512;" xml:space="preserve" fill="rgba(255, 255, 255, 0.67)">
<g>
	<g>
		<path d="M364.372,131.041H147.629c-9.162,0-16.588,7.426-16.588,16.588v216.743c0,9.162,7.426,16.587,16.588,16.587h216.743
			c9.167,0,16.587-7.42,16.587-16.587V147.629C380.959,138.467,373.533,131.041,364.372,131.041z M347.784,347.784H164.216V164.216
			h183.568V347.784z"/>
	</g>
</g>
<g>
	<g>
		<rect x="194.626" y="65.797" width="33.175" height="82.937"/>
	</g>
</g>
<g>
	<g>
		<path d="M211.214,0c-23.173,0-42.022,18.849-42.022,42.022c0,23.173,18.849,42.022,42.022,42.022
			c23.173,0,42.022-18.849,42.022-42.022C253.235,18.849,234.381,0,211.214,0z M211.214,50.868c-4.877,0-8.847-3.97-8.847-8.847
			s3.97-8.847,8.847-8.847s8.847,3.97,8.847,8.847S216.091,50.868,211.214,50.868z"/>
	</g>
</g>
<g>
	<g>
		<path d="M294.151,49.209c-9.162,0-16.587,7.426-16.587,16.588v82.937h33.175v-66.35h48.657V49.209H294.151z"/>
	</g>
</g>
<g>
	<g>
		<path d="M382.618,23.775c-23.178,0-42.027,18.849-42.027,42.022c0,23.173,18.854,42.022,42.027,42.022
			c23.173,0,42.022-18.849,42.022-42.022C424.639,42.624,405.785,23.775,382.618,23.775z M382.618,74.644
			c-4.882,0-8.852-3.97-8.852-8.847s3.97-8.847,8.852-8.847c4.877,0,8.847,3.97,8.847,8.847S387.494,74.644,382.618,74.644z"/>
	</g>
</g>
<g>
	<g>
		<rect x="363.266" y="200.708" width="82.937" height="33.175"/>
	</g>
</g>
<g>
	<g>
		<path d="M469.978,175.269c-23.173,0-42.022,18.854-42.022,42.022c0,23.173,18.854,42.027,42.022,42.027S512,240.469,512,217.29
			C512,194.118,493.151,175.269,469.978,175.269z M469.978,226.143c-4.877,0-8.847-3.97-8.847-8.847s3.97-8.847,8.847-8.847
			c4.877,0,8.847,3.97,8.847,8.847S474.855,226.143,469.978,226.143z"/>
	</g>
</g>
<g>
	<g>
		<path d="M446.203,283.646h-82.937v33.175h66.35v48.657h33.175v-65.244C462.79,291.071,455.365,283.646,446.203,283.646z"/>
	</g>
</g>
<g>
	<g>
		<path d="M446.203,346.673c-23.178,0-42.027,18.854-42.027,42.022c0,23.178,18.854,42.027,42.027,42.027
			s42.022-18.849,42.022-42.027C488.225,365.522,469.37,346.673,446.203,346.673z M446.203,397.552c-4.882,0-8.852-3.97-8.852-8.852
			c0-4.877,3.97-8.847,8.852-8.847c4.877,0,8.847,3.97,8.847,8.847C455.05,393.582,451.08,397.552,446.203,397.552z"/>
	</g>
</g>
<g>
	<g>
		<rect x="65.797" y="283.093" width="82.937" height="33.175"/>
	</g>
</g>
<g>
	<g>
		<path d="M42.022,257.659C18.849,257.659,0,276.508,0,299.68c0,23.173,18.849,42.022,42.022,42.022
			c23.173,0,42.022-18.849,42.022-42.016C84.043,276.508,65.194,257.659,42.022,257.659z M42.022,308.527
			c-4.877,0-8.847-3.97-8.847-8.847c0-4.882,3.97-8.847,8.847-8.847s8.847,3.964,8.847,8.847
			C50.868,304.557,46.898,308.527,42.022,308.527z"/>
	</g>
</g>
<g>
	<g>
		<path d="M82.384,200.156v-48.657H49.209v65.244c0,9.162,7.426,16.587,16.588,16.587h82.937v-33.175H82.384z"/>
	</g>
</g>
<g>
	<g>
		<path d="M65.797,86.255c-23.173,0-42.022,18.849-42.022,42.022c0,23.173,18.849,42.022,42.022,42.022
			c23.173,0,42.022-18.849,42.022-42.022C107.819,105.104,88.97,86.255,65.797,86.255z M65.797,137.123
			c-4.877,0-8.847-3.97-8.847-8.847c0-4.877,3.97-8.847,8.847-8.847c4.877,0,8.847,3.97,8.847,8.847
			C74.644,133.153,70.674,137.123,65.797,137.123z"/>
	</g>
</g>
<g>
	<g>
		<rect x="283.093" y="363.266" width="33.175" height="82.937"/>
	</g>
</g>
<g>
	<g>
		<path d="M299.68,427.957c-23.178,0-42.027,18.849-42.027,42.022S276.508,512,299.68,512c23.173,0,42.022-18.849,42.022-42.022
			S322.847,427.957,299.68,427.957z M299.68,478.825c-4.882,0-8.852-3.97-8.852-8.847s3.97-8.847,8.852-8.847
			c4.877,0,8.847,3.97,8.847,8.847S304.557,478.825,299.68,478.825z"/>
	</g>
</g>
<g>
	<g>
		<path d="M200.156,363.266v66.35h-48.657v33.175h65.244c9.162,0,16.587-7.426,16.587-16.587v-82.937H200.156z"/>
	</g>
</g>
<g>
	<g>
		<path d="M128.276,404.176c-23.173,0-42.022,18.854-42.022,42.027c0,23.173,18.849,42.022,42.022,42.022
			c23.173,0,42.022-18.849,42.022-42.022C170.298,423.025,151.444,404.176,128.276,404.176z M128.276,455.055
			c-4.877,0-8.847-3.97-8.847-8.847c0-4.882,3.97-8.852,8.847-8.852c4.877,0,8.847,3.964,8.847,8.852
			C137.123,451.085,133.153,455.055,128.276,455.055z"/>
	</g>
</g>
<g>
	<g>
		<path d="M309.08,186.333H202.92c-9.162,0-16.587,7.426-16.587,16.587v106.16c0,9.162,7.426,16.588,16.587,16.588h106.16
			c9.167,0,16.588-7.42,16.588-16.588V202.92C325.667,193.758,318.242,186.333,309.08,186.333z M292.492,292.492h-72.985v-72.985
			h72.985V292.492z"/>
	</g>
</g>
<g>
</g>
<g>
</g>
<g>
</g>
<g>
</g>
<g>
</g>
<g>
</g>
<g>
</g>
<g>
</g>
<g>
</g>
<g>
</g>
<g>
</g>
<g>
</g>
<g>
</g>
<g>
</g>
<g>
</g>
</svg>
