<svg xmlns="http://www.w3.org/2000/svg" viewBox="0 0 64 64" width="512" height="512"><g id="Upload_cloud_cloud_computing_storage_server" data-name="Upload_cloud_cloud computing_storage_server" fill="#FFFFFF"><circle cx="16" cy="55" r="1"/><circle cx="16" cy="43" r="1"/><circle cx="24" cy="43" r="1"/><path d="M34.64,25.23,39,28.86V26.45l-7-6.12-7,6.12v2.41l4.36-3.63A1,1,0,0,1,31,26V38h2V26a1,1,0,0,1,1.64-.77Z"/><path d="M11,60H53V50H11Zm38-8h2v2H49Zm0,4h2v2H49Zm-6-4h2v2H43Zm0,4h2v2H43Zm-6-4h2v2H37Zm0,4h2v2H37Zm-5-4a3,3,0,1,1-3,3A3,3,0,0,1,32,52Zm-8,0a3,3,0,1,1-3,3A3,3,0,0,1,24,52Zm-8,0a3,3,0,1,1-3,3A3,3,0,0,1,16,52Z"/><circle cx="32" cy="55" r="1"/><circle cx="24" cy="55" r="1"/><path d="M32,44a14.865,14.865,0,0,1-5.01-.88,3,3,0,1,1-4.62-2.63A15.766,15.766,0,0,1,20.03,38H11V48H53V38H43.97A14.957,14.957,0,0,1,32,44ZM16,46a3,3,0,1,1,3-3A3,3,0,0,1,16,46Zm23,0H37V44h2Zm6,0H43V44h2Zm4-6h2v2H49Zm0,4h2v2H49Zm-4-2H43V40h2Z"/><path d="M32,14A15.018,15.018,0,0,1,47,29V28a4.994,4.994,0,0,0,1.27-9.826l.506-1.935A6.994,6.994,0,0,1,47,30V29a14.819,14.819,0,0,1-.3,3H47a8.992,8.992,0,0,0,2.29-17.69,1.006,1.006,0,0,1-.69-.64,6.988,6.988,0,0,0-9.82-3.88,1,1,0,0,1-1.32-.38,10.982,10.982,0,0,0-20.3,3.79,1.009,1.009,0,0,1-.91.84A9,9,0,0,0,17,32h.3a14.819,14.819,0,0,1-.3-3v1a7,7,0,0,1-.581-13.968l.163,1.993A5,5,0,0,0,17,28v1A15.018,15.018,0,0,1,32,14Z"/><path d="M45,29A13,13,0,1,0,32,42,13.012,13.012,0,0,0,45,29ZM29,39V28.14l-4.36,3.63A1,1,0,0,1,23,31V26a.981.981,0,0,1,.34-.75l8-7a1,1,0,0,1,1.32,0l8,7A.981.981,0,0,1,41,26v5a1,1,0,0,1-1.64.77L35,28.14V39a1,1,0,0,1-1,1H30A1,1,0,0,1,29,39Z"/><path d="M7,56H3a1,1,0,0,1-1-1V42a1,1,0,0,1,1-1H7v2H4V54H7Z"/><path d="M61,56H57V54h3V43H57V41h4a1,1,0,0,1,1,1V55A1,1,0,0,1,61,56Z"/></g></svg>